<?xml version="1.0" encoding="utf-8"?>
<!-- Generator: Adobe Illustrator 16.0.0, SVG Export Plug-In . SVG Version: 6.00 Build 0)  -->
<!DOCTYPE svg PUBLIC "-//W3C//DTD SVG 1.0//EN" "http://www.w3.org/TR/2001/REC-SVG-20010904/DTD/svg10.dtd">
<svg version="1.0" id="Layer_1" xmlns="http://www.w3.org/2000/svg" xmlns:xlink="http://www.w3.org/1999/xlink" x="0px" y="0px"
	 width="100px" height="100px" viewBox="0 0 100 100" enable-background="new 0 0 100 100" xml:space="preserve">
<path d="M50,10c-22.09,0-40,17.91-40,40c0,22.093,17.91,40,40,40c22.093,0,40-17.907,40-40C90,27.91,72.093,10,50,10z M50,83.333
	c-18.411,0-33.333-14.922-33.333-33.333c0-18.412,14.922-33.333,33.333-33.333S83.333,31.588,83.333,50
	C83.333,68.411,68.411,83.333,50,83.333z"/>
<path d="M38.047,53.333l-4.714,4.714l14.311,14.31c1.302,1.303,3.414,1.303,4.713,0l14.311-14.31l-4.714-4.714l-8.62,8.62V26.667
	h-6.666v35.287L38.047,53.333z"/>
</svg>
